<?xml version="1.0" encoding="UTF-8"?>
<mxfile host="app.diagrams.net" modified="2021-05-13T08:56:03.648Z" agent="5.0 (Windows NT 10.0; Win64; x64) AppleWebKit/537.36 (KHTML, like Gecko) Chrome/86.0.4240.272 Whale/2.9.117.22 Safari/537.36" etag="8d3qAetmZRFdXk5UHP0V" version="14.6.12" type="google">
  <diagram id="C5RBs43oDa-KdzZeNtuy" name="Page-1">
    <mxGraphModel dx="3903" dy="794" grid="1" gridSize="10" guides="1" tooltips="1" connect="1" arrows="1" fold="1" page="1" pageScale="1" pageWidth="827" pageHeight="1169" math="0" shadow="0">
      <root>
        <mxCell id="WIyWlLk6GJQsqaUBKTNV-0" />
        <mxCell id="WIyWlLk6GJQsqaUBKTNV-1" parent="WIyWlLk6GJQsqaUBKTNV-0" />
        <mxCell id="1DBxbzMebl6FEYnaQOzT-3" value="Controller" style="swimlane;fontStyle=2;align=center;verticalAlign=top;childLayout=stackLayout;horizontal=1;startSize=26;horizontalStack=0;resizeParent=1;resizeLast=0;collapsible=1;marginBottom=0;rounded=0;shadow=0;strokeWidth=1;" parent="WIyWlLk6GJQsqaUBKTNV-1" vertex="1">
          <mxGeometry x="-1320" y="90" width="300" height="114" as="geometry">
            <mxRectangle x="230" y="140" width="160" height="26" as="alternateBounds" />
          </mxGeometry>
        </mxCell>
        <mxCell id="6YFj8Sn7V4J3rEWGGBN--41" value="-issueService:IssueService&#xa;" style="text;align=left;verticalAlign=top;spacingLeft=4;spacingRight=4;overflow=hidden;rotatable=0;points=[[0,0.5],[1,0.5]];portConstraint=eastwest;" parent="1DBxbzMebl6FEYnaQOzT-3" vertex="1">
          <mxGeometry y="26" width="300" height="26" as="geometry" />
        </mxCell>
        <mxCell id="1DBxbzMebl6FEYnaQOzT-4" value="-IssueInfo:List&lt;IssuesResponseDto&gt;&#xa;" style="text;align=left;verticalAlign=top;spacingLeft=4;spacingRight=4;overflow=hidden;rotatable=0;points=[[0,0.5],[1,0.5]];portConstraint=eastwest;" parent="1DBxbzMebl6FEYnaQOzT-3" vertex="1">
          <mxGeometry y="52" width="300" height="26" as="geometry" />
        </mxCell>
        <mxCell id="1DBxbzMebl6FEYnaQOzT-6" value="" style="line;html=1;strokeWidth=1;align=left;verticalAlign=middle;spacingTop=-1;spacingLeft=3;spacingRight=3;rotatable=0;labelPosition=right;points=[];portConstraint=eastwest;" parent="1DBxbzMebl6FEYnaQOzT-3" vertex="1">
          <mxGeometry y="78" width="300" height="10" as="geometry" />
        </mxCell>
        <mxCell id="1DBxbzMebl6FEYnaQOzT-7" value="+get(queryRequest:string):List&lt;IssuesResponseDto&gt;" style="text;align=left;verticalAlign=top;spacingLeft=4;spacingRight=4;overflow=hidden;rotatable=0;points=[[0,0.5],[1,0.5]];portConstraint=eastwest;" parent="1DBxbzMebl6FEYnaQOzT-3" vertex="1">
          <mxGeometry y="88" width="300" height="26" as="geometry" />
        </mxCell>
        <mxCell id="6YFj8Sn7V4J3rEWGGBN--1" value="" style="line;strokeWidth=1;fillColor=none;align=left;verticalAlign=middle;spacingTop=-1;spacingLeft=3;spacingRight=3;rotatable=0;labelPosition=right;points=[];portConstraint=eastwest;" parent="WIyWlLk6GJQsqaUBKTNV-1" vertex="1">
          <mxGeometry x="-1436" y="121" width="116" height="8" as="geometry" />
        </mxCell>
        <mxCell id="6YFj8Sn7V4J3rEWGGBN--2" value="1" style="text;html=1;strokeColor=none;fillColor=none;align=center;verticalAlign=middle;whiteSpace=wrap;rounded=0;" parent="WIyWlLk6GJQsqaUBKTNV-1" vertex="1">
          <mxGeometry x="-1343" y="101" width="20" height="20" as="geometry" />
        </mxCell>
        <mxCell id="6YFj8Sn7V4J3rEWGGBN--3" value="0..*" style="text;html=1;strokeColor=none;fillColor=none;align=center;verticalAlign=middle;whiteSpace=wrap;rounded=0;" parent="WIyWlLk6GJQsqaUBKTNV-1" vertex="1">
          <mxGeometry x="-1433" y="101" width="30" height="20" as="geometry" />
        </mxCell>
        <mxCell id="6YFj8Sn7V4J3rEWGGBN--4" value="IssueRepository" style="swimlane;fontStyle=0;align=center;verticalAlign=top;childLayout=stackLayout;horizontal=1;startSize=26;horizontalStack=0;resizeParent=1;resizeLast=0;collapsible=1;marginBottom=0;rounded=0;shadow=0;strokeWidth=1;" parent="WIyWlLk6GJQsqaUBKTNV-1" vertex="1">
          <mxGeometry x="-706" y="245" width="246" height="59" as="geometry">
            <mxRectangle x="340" y="380" width="170" height="26" as="alternateBounds" />
          </mxGeometry>
        </mxCell>
        <mxCell id="6YFj8Sn7V4J3rEWGGBN--5" value="" style="line;html=1;strokeWidth=1;align=left;verticalAlign=middle;spacingTop=-1;spacingLeft=3;spacingRight=3;rotatable=0;labelPosition=right;points=[];portConstraint=eastwest;" parent="6YFj8Sn7V4J3rEWGGBN--4" vertex="1">
          <mxGeometry y="26" width="246" height="8" as="geometry" />
        </mxCell>
        <mxCell id="6YFj8Sn7V4J3rEWGGBN--40" value="+findAllByGeustId(guestId:Long):List&amp;lt;Issues&amp;gt;" style="text;html=1;align=left;verticalAlign=middle;resizable=0;points=[];autosize=1;strokeColor=none;" parent="6YFj8Sn7V4J3rEWGGBN--4" vertex="1">
          <mxGeometry y="34" width="246" height="20" as="geometry" />
        </mxCell>
        <mxCell id="6YFj8Sn7V4J3rEWGGBN--6" value="" style="endArrow=classic;html=1;exitX=0.5;exitY=1;exitDx=0;exitDy=0;rounded=0;entryX=0;entryY=0.25;entryDx=0;entryDy=0;" parent="WIyWlLk6GJQsqaUBKTNV-1" target="6YFj8Sn7V4J3rEWGGBN--7" edge="1">
          <mxGeometry width="50" height="50" relative="1" as="geometry">
            <mxPoint x="-1226" y="191" as="sourcePoint" />
            <mxPoint x="-1101" y="404" as="targetPoint" />
            <Array as="points">
              <mxPoint x="-1226" y="265" />
            </Array>
          </mxGeometry>
        </mxCell>
        <mxCell id="6YFj8Sn7V4J3rEWGGBN--7" value="IssuesService" style="swimlane;fontStyle=0;align=center;verticalAlign=top;childLayout=stackLayout;horizontal=1;startSize=26;horizontalStack=0;resizeParent=1;resizeLast=0;collapsible=1;marginBottom=0;rounded=0;shadow=0;strokeWidth=1;" parent="WIyWlLk6GJQsqaUBKTNV-1" vertex="1">
          <mxGeometry x="-1171" y="245" width="330" height="79" as="geometry">
            <mxRectangle x="340" y="380" width="170" height="26" as="alternateBounds" />
          </mxGeometry>
        </mxCell>
        <mxCell id="6YFj8Sn7V4J3rEWGGBN--8" value="-issuesRepository:IssuesRepository" style="text;html=1;align=left;verticalAlign=middle;resizable=0;points=[];autosize=1;strokeColor=none;" parent="6YFj8Sn7V4J3rEWGGBN--7" vertex="1">
          <mxGeometry y="26" width="330" height="20" as="geometry" />
        </mxCell>
        <mxCell id="6YFj8Sn7V4J3rEWGGBN--9" value="" style="line;html=1;strokeWidth=1;align=left;verticalAlign=middle;spacingTop=-1;spacingLeft=3;spacingRight=3;rotatable=0;labelPosition=right;points=[];portConstraint=eastwest;" parent="6YFj8Sn7V4J3rEWGGBN--7" vertex="1">
          <mxGeometry y="46" width="330" height="8" as="geometry" />
        </mxCell>
        <mxCell id="6YFj8Sn7V4J3rEWGGBN--10" value="+findAllByGeustId(guestId:Long):List&amp;lt;IssueResponseDto&amp;gt;" style="text;html=1;align=left;verticalAlign=middle;resizable=0;points=[];autosize=1;strokeColor=none;" parent="6YFj8Sn7V4J3rEWGGBN--7" vertex="1">
          <mxGeometry y="54" width="330" height="20" as="geometry" />
        </mxCell>
        <mxCell id="6YFj8Sn7V4J3rEWGGBN--11" value="Issues" style="swimlane;fontStyle=0;align=center;verticalAlign=top;childLayout=stackLayout;horizontal=1;startSize=26;horizontalStack=0;resizeParent=1;resizeLast=0;collapsible=1;marginBottom=0;rounded=0;shadow=0;strokeWidth=1;" parent="WIyWlLk6GJQsqaUBKTNV-1" vertex="1">
          <mxGeometry x="-686" y="415" width="260" height="229" as="geometry">
            <mxRectangle x="340" y="380" width="170" height="26" as="alternateBounds" />
          </mxGeometry>
        </mxCell>
        <mxCell id="6YFj8Sn7V4J3rEWGGBN--12" value="-Long guestId" style="text;html=1;align=left;verticalAlign=middle;resizable=0;points=[];autosize=1;strokeColor=none;" parent="6YFj8Sn7V4J3rEWGGBN--11" vertex="1">
          <mxGeometry y="26" width="260" height="20" as="geometry" />
        </mxCell>
        <mxCell id="6YFj8Sn7V4J3rEWGGBN--13" value="-String title&lt;span style=&quot;color: rgba(0 , 0 , 0 , 0) ; font-family: monospace ; font-size: 0px&quot;&gt;%3CmxGraphModel%3E%3Croot%3E%3CmxCell%20id%3D%220%22%2F%3E%3CmxCell%20id%3D%221%22%20parent%3D%220%22%2F%3E%3CmxCell%20id%3D%222%22%20value%3D%22%2B%22%20style%3D%22text%3Bhtml%3D1%3Balign%3Dleft%3BverticalAlign%3Dmiddle%3Bresizable%3D0%3Bpoints%3D%5B%5D%3Bautosize%3D1%3BstrokeColor%3Dnone%3B%22%20vertex%3D%221%22%20parent%3D%221%22%3E%3CmxGeometry%20x%3D%22730%22%20y%3D%22296%22%20width%3D%22180%22%20height%3D%2220%22%20as%3D%22geometry%22%2F%3E%3C%2FmxCell%3E%3C%2Froot%3E%3C%2FmxGraphModel%3E&lt;/span&gt;" style="text;html=1;align=left;verticalAlign=middle;resizable=0;points=[];autosize=1;strokeColor=none;" parent="6YFj8Sn7V4J3rEWGGBN--11" vertex="1">
          <mxGeometry y="46" width="260" height="20" as="geometry" />
        </mxCell>
        <mxCell id="6YFj8Sn7V4J3rEWGGBN--14" value="-String author&lt;span style=&quot;color: rgba(0 , 0 , 0 , 0) ; font-family: monospace ; font-size: 0px&quot;&gt;%3CmxGraphModel%3E%3Croot%3E%3CmxCell%20id%3D%220%22%2F%3E%3CmxCell%20id%3D%221%22%20parent%3D%220%22%2F%3E%3CmxCell%20id%3D%222%22%20value%3D%22%2B%22%20style%3D%22text%3Bhtml%3D1%3Balign%3Dleft%3BverticalAlign%3Dmiddle%3Bresizable%3D0%3Bpoints%3D%5B%5D%3Bautosize%3D1%3BstrokeColor%3Dnone%3B%22%20vertex%3D%221%22%20parent%3D%221%22%3E%3CmxGeometry%20x%3D%22730%22%20y%3D%22296%22%20width%3D%22180%22%20height%3D%2220%22%20as%3D%22geometry%22%2F%3E%3C%2FmxCell%3E%3C%2Froot%3E%3C%2FmxGraphModel%3E&lt;/span&gt;" style="text;html=1;align=left;verticalAlign=middle;resizable=0;points=[];autosize=1;strokeColor=none;" parent="6YFj8Sn7V4J3rEWGGBN--11" vertex="1">
          <mxGeometry y="66" width="260" height="20" as="geometry" />
        </mxCell>
        <mxCell id="6YFj8Sn7V4J3rEWGGBN--15" value="-int calculatedFine&lt;span style=&quot;color: rgba(0 , 0 , 0 , 0) ; font-family: monospace ; font-size: 0px&quot;&gt;3CmxGraphModel%3E%3Croot%3E%3CmxCell%20id%3D%220%22%2F%3E%3CmxCell%20id%3D%221%22%20parent%3D%220%22%2F%3E%3CmxCell%20id%3D%222%22%20value%3D%22%2B%22%20style%3D%22text%3Bhtml%3D1%3Balign%3Dleft%3BverticalAlign%3Dmiddle%3Bresizable%3D0%3Bpoints%3D%5B%5D%3Bautosize%3D1%3BstrokeColor%3Dnone%3B%22%20vertex%3D%221%22%20parent%3D%221%22%3E%3CmxGeometry%20x%3D%22730%22%20y%3D%22296%22%20width%3D%22180%22%20height%3D%2220%22%20as%3D%22geometry%22%2F%3E%3C%2FmxCell%3E%3C%2Froot%3E%3C%2FmxGraphModel%3E&lt;/span&gt;" style="text;html=1;align=left;verticalAlign=middle;resizable=0;points=[];autosize=1;strokeColor=none;" parent="6YFj8Sn7V4J3rEWGGBN--11" vertex="1">
          <mxGeometry y="86" width="260" height="20" as="geometry" />
        </mxCell>
        <mxCell id="6YFj8Sn7V4J3rEWGGBN--16" value="-Boolean overdueStatus&lt;span style=&quot;color: rgba(0 , 0 , 0 , 0) ; font-family: monospace ; font-size: 0px&quot;&gt;%3CmxGraphModel%3E%3Croot%3E%3CmxCell%20id%3D%220%22%2F%3E%3CmxCell%20id%3D%221%22%20parent%3D%220%22%2F%3E%3CmxCell%20id%3D%222%22%20value%3D%22%2B%22%20style%3D%22text%3Bhtml%3D1%3Balign%3Dleft%3BverticalAlign%3Dmiddle%3Bresizable%3D0%3Bpoints%3D%5B%5D%3Bautosize%3D1%3BstrokeColor%3Dnone%3B%22%20vertex%3D%221%22%20parent%3D%221%22%3E%3CmxGeometry%20x%3D%22730%22%20y%3D%22296%22%20width%3D%22180%22%20height%3D%2220%22%20as%3D%22geometry%22%2F%3E%3C%2FmxCell%3E%3C%2Froot%3E%3C%2FmxGraphModel%3E&lt;/span&gt;" style="text;html=1;align=left;verticalAlign=middle;resizable=0;points=[];autosize=1;strokeColor=none;" parent="6YFj8Sn7V4J3rEWGGBN--11" vertex="1">
          <mxGeometry y="106" width="260" height="20" as="geometry" />
        </mxCell>
        <mxCell id="6YFj8Sn7V4J3rEWGGBN--17" value="-int issuePeriod&lt;span style=&quot;color: rgba(0 , 0 , 0 , 0) ; font-family: monospace ; font-size: 0px&quot;&gt;mxGraphModel%3E%3Croot%3E%3CmxCell%20id%3D%220%22%2F%3E%3CmxCell%20id%3D%221%22%20parent%3D%220%22%2F%3E%3CmxCell%20id%3D%222%22%20value%3D%22%2B%22%20style%3D%22text%3Bhtml%3D1%3Balign%3Dleft%3BverticalAlign%3Dmiddle%3Bresizable%3D0%3Bpoints%3D%5B%5D%3Bautosize%3D1%3BstrokeColor%3Dnone%3B%22%20vertex%3D%221%22%20parent%3D%221%22%3E%3CmxGeometry%20x%3D%22730%22%20y%3D%22296%22%20width%3D%22180%22%20height%3D%2220%22%20as%3D%22geometry%22%2F%3E%3C%2FmxCell%3E%3C%2Froot%3E%3C%2FmxGraphModel&lt;/span&gt;" style="text;html=1;align=left;verticalAlign=middle;resizable=0;points=[];autosize=1;strokeColor=none;" parent="6YFj8Sn7V4J3rEWGGBN--11" vertex="1">
          <mxGeometry y="126" width="260" height="20" as="geometry" />
        </mxCell>
        <mxCell id="6YFj8Sn7V4J3rEWGGBN--18" value="-String location&lt;span style=&quot;color: rgba(0 , 0 , 0 , 0) ; font-family: monospace ; font-size: 0px&quot;&gt;%3E%3Croot%3E%3CmxCell%20id%3D%220%22%2F%3E%3CmxCell%20id%3D%221%22%20parent%3D%220%22%2F%3E%3CmxCell%20id%3D%222%22%20value%3D%22%2B%22%20style%3D%22text%3Bhtml%3D1%3Balign%3Dleft%3BverticalAlign%3Dmiddle%3Bresizable%3D0%3Bpoints%3D%5B%5D%3Bautosize%3D1%3BstrokeColor%3Dnone%3B%22%20vertex%3D%221%22%20parent%3D%221%22%3E%3CmxGeometry%20x%3D%22730%22%20y%3D%22296%22%20width%3D%22180%22%20height%3D%2220%22%20as%3D%22geometry%22%2F%3E%3C%2FmxCell%3E%3C%2Froot%3E%3C%2FmxGraphModel&lt;/span&gt;" style="text;html=1;align=left;verticalAlign=middle;resizable=0;points=[];autosize=1;strokeColor=none;" parent="6YFj8Sn7V4J3rEWGGBN--11" vertex="1">
          <mxGeometry y="146" width="260" height="20" as="geometry" />
        </mxCell>
        <mxCell id="6YFj8Sn7V4J3rEWGGBN--19" value="" style="line;html=1;strokeWidth=1;align=left;verticalAlign=middle;spacingTop=-1;spacingLeft=3;spacingRight=3;rotatable=0;labelPosition=right;points=[];portConstraint=eastwest;" parent="6YFj8Sn7V4J3rEWGGBN--11" vertex="1">
          <mxGeometry y="166" width="260" height="8" as="geometry" />
        </mxCell>
        <mxCell id="6YFj8Sn7V4J3rEWGGBN--20" value="+Issues(geustId:Long, title:String,&lt;br&gt;author:String, location:String, issuePeriod:int,&lt;br&gt;overdueStatus:Boolean, calculatedFine:int)" style="text;html=1;align=left;verticalAlign=middle;resizable=0;points=[];autosize=1;strokeColor=none;" parent="6YFj8Sn7V4J3rEWGGBN--11" vertex="1">
          <mxGeometry y="174" width="260" height="50" as="geometry" />
        </mxCell>
        <mxCell id="6YFj8Sn7V4J3rEWGGBN--21" value="IssueResponseDto" style="swimlane;fontStyle=0;align=center;verticalAlign=top;childLayout=stackLayout;horizontal=1;startSize=26;horizontalStack=0;resizeParent=1;resizeLast=0;collapsible=1;marginBottom=0;rounded=0;shadow=0;strokeWidth=1;" parent="WIyWlLk6GJQsqaUBKTNV-1" vertex="1">
          <mxGeometry x="-1146" y="440" width="280" height="200" as="geometry">
            <mxRectangle x="340" y="380" width="170" height="26" as="alternateBounds" />
          </mxGeometry>
        </mxCell>
        <mxCell id="6YFj8Sn7V4J3rEWGGBN--22" value="-Long guestId" style="text;html=1;align=left;verticalAlign=middle;resizable=0;points=[];autosize=1;strokeColor=none;" parent="6YFj8Sn7V4J3rEWGGBN--21" vertex="1">
          <mxGeometry y="26" width="280" height="20" as="geometry" />
        </mxCell>
        <mxCell id="6YFj8Sn7V4J3rEWGGBN--23" value="-String title&lt;span style=&quot;color: rgba(0 , 0 , 0 , 0) ; font-family: monospace ; font-size: 0px&quot;&gt;%3CmxGraphModel%3E%3Croot%3E%3CmxCell%20id%3D%220%22%2F%3E%3CmxCell%20id%3D%221%22%20parent%3D%220%22%2F%3E%3CmxCell%20id%3D%222%22%20value%3D%22%2B%22%20style%3D%22text%3Bhtml%3D1%3Balign%3Dleft%3BverticalAlign%3Dmiddle%3Bresizable%3D0%3Bpoints%3D%5B%5D%3Bautosize%3D1%3BstrokeColor%3Dnone%3B%22%20vertex%3D%221%22%20parent%3D%221%22%3E%3CmxGeometry%20x%3D%22730%22%20y%3D%22296%22%20width%3D%22180%22%20height%3D%2220%22%20as%3D%22geometry%22%2F%3E%3C%2FmxCell%3E%3C%2Froot%3E%3C%2FmxGraphModel%3E&lt;/span&gt;" style="text;html=1;align=left;verticalAlign=middle;resizable=0;points=[];autosize=1;strokeColor=none;" parent="6YFj8Sn7V4J3rEWGGBN--21" vertex="1">
          <mxGeometry y="46" width="280" height="20" as="geometry" />
        </mxCell>
        <mxCell id="6YFj8Sn7V4J3rEWGGBN--24" value="-String author&lt;span style=&quot;color: rgba(0 , 0 , 0 , 0) ; font-family: monospace ; font-size: 0px&quot;&gt;%3CmxGraphModel%3E%3Croot%3E%3CmxCell%20id%3D%220%22%2F%3E%3CmxCell%20id%3D%221%22%20parent%3D%220%22%2F%3E%3CmxCell%20id%3D%222%22%20value%3D%22%2B%22%20style%3D%22text%3Bhtml%3D1%3Balign%3Dleft%3BverticalAlign%3Dmiddle%3Bresizable%3D0%3Bpoints%3D%5B%5D%3Bautosize%3D1%3BstrokeColor%3Dnone%3B%22%20vertex%3D%221%22%20parent%3D%221%22%3E%3CmxGeometry%20x%3D%22730%22%20y%3D%22296%22%20width%3D%22180%22%20height%3D%2220%22%20as%3D%22geometry%22%2F%3E%3C%2FmxCell%3E%3C%2Froot%3E%3C%2FmxGraphModel%3E&lt;/span&gt;" style="text;html=1;align=left;verticalAlign=middle;resizable=0;points=[];autosize=1;strokeColor=none;" parent="6YFj8Sn7V4J3rEWGGBN--21" vertex="1">
          <mxGeometry y="66" width="280" height="20" as="geometry" />
        </mxCell>
        <mxCell id="6YFj8Sn7V4J3rEWGGBN--25" value="-String location&lt;span style=&quot;color: rgba(0 , 0 , 0 , 0) ; font-family: monospace ; font-size: 0px&quot;&gt;%3E%3Croot%3E%3CmxCell%20id%3D%220%22%2F%3E%3CmxCell%20id%3D%221%22%20parent%3D%220%22%2F%3E%3CmxCell%20id%3D%222%22%20value%3D%22%2B%22%20style%3D%22text%3Bhtml%3D1%3Balign%3Dleft%3BverticalAlign%3Dmiddle%3Bresizable%3D0%3Bpoints%3D%5B%5D%3Bautosize%3D1%3BstrokeColor%3Dnone%3B%22%20vertex%3D%221%22%20parent%3D%221%22%3E%3CmxGeometry%20x%3D%22730%22%20y%3D%22296%22%20width%3D%22180%22%20height%3D%2220%22%20as%3D%22geometry%22%2F%3E%3C%2FmxCell%3E%3C%2Froot%3E%3C%2FmxGraphModel&lt;/span&gt;" style="text;html=1;align=left;verticalAlign=middle;resizable=0;points=[];autosize=1;strokeColor=none;" parent="6YFj8Sn7V4J3rEWGGBN--21" vertex="1">
          <mxGeometry y="86" width="280" height="20" as="geometry" />
        </mxCell>
        <mxCell id="6YFj8Sn7V4J3rEWGGBN--26" value="-int issuePeriod&lt;span style=&quot;color: rgba(0 , 0 , 0 , 0) ; font-family: monospace ; font-size: 0px&quot;&gt;mxGraphModel%3E%3Croot%3E%3CmxCell%20id%3D%220%22%2F%3E%3CmxCell%20id%3D%221%22%20parent%3D%220%22%2F%3E%3CmxCell%20id%3D%222%22%20value%3D%22%2B%22%20style%3D%22text%3Bhtml%3D1%3Balign%3Dleft%3BverticalAlign%3Dmiddle%3Bresizable%3D0%3Bpoints%3D%5B%5D%3Bautosize%3D1%3BstrokeColor%3Dnone%3B%22%20vertex%3D%221%22%20parent%3D%221%22%3E%3CmxGeometry%20x%3D%22730%22%20y%3D%22296%22%20width%3D%22180%22%20height%3D%2220%22%20as%3D%22geometry%22%2F%3E%3C%2FmxCell%3E%3C%2Froot%3E%3C%2FmxGraphModel&lt;/span&gt;" style="text;html=1;align=left;verticalAlign=middle;resizable=0;points=[];autosize=1;strokeColor=none;" parent="6YFj8Sn7V4J3rEWGGBN--21" vertex="1">
          <mxGeometry y="106" width="280" height="20" as="geometry" />
        </mxCell>
        <mxCell id="6YFj8Sn7V4J3rEWGGBN--27" value="-Boolean overdueStatus&lt;span style=&quot;color: rgba(0 , 0 , 0 , 0) ; font-family: monospace ; font-size: 0px&quot;&gt;%3CmxGraphModel%3E%3Croot%3E%3CmxCell%20id%3D%220%22%2F%3E%3CmxCell%20id%3D%221%22%20parent%3D%220%22%2F%3E%3CmxCell%20id%3D%222%22%20value%3D%22%2B%22%20style%3D%22text%3Bhtml%3D1%3Balign%3Dleft%3BverticalAlign%3Dmiddle%3Bresizable%3D0%3Bpoints%3D%5B%5D%3Bautosize%3D1%3BstrokeColor%3Dnone%3B%22%20vertex%3D%221%22%20parent%3D%221%22%3E%3CmxGeometry%20x%3D%22730%22%20y%3D%22296%22%20width%3D%22180%22%20height%3D%2220%22%20as%3D%22geometry%22%2F%3E%3C%2FmxCell%3E%3C%2Froot%3E%3C%2FmxGraphModel%3E&lt;/span&gt;" style="text;html=1;align=left;verticalAlign=middle;resizable=0;points=[];autosize=1;strokeColor=none;" parent="6YFj8Sn7V4J3rEWGGBN--21" vertex="1">
          <mxGeometry y="126" width="280" height="20" as="geometry" />
        </mxCell>
        <mxCell id="6YFj8Sn7V4J3rEWGGBN--28" value="-int calculatedFine&lt;span style=&quot;color: rgba(0 , 0 , 0 , 0) ; font-family: monospace ; font-size: 0px&quot;&gt;3CmxGraphModel%3E%3Croot%3E%3CmxCell%20id%3D%220%22%2F%3E%3CmxCell%20id%3D%221%22%20parent%3D%220%22%2F%3E%3CmxCell%20id%3D%222%22%20value%3D%22%2B%22%20style%3D%22text%3Bhtml%3D1%3Balign%3Dleft%3BverticalAlign%3Dmiddle%3Bresizable%3D0%3Bpoints%3D%5B%5D%3Bautosize%3D1%3BstrokeColor%3Dnone%3B%22%20vertex%3D%221%22%20parent%3D%221%22%3E%3CmxGeometry%20x%3D%22730%22%20y%3D%22296%22%20width%3D%22180%22%20height%3D%2220%22%20as%3D%22geometry%22%2F%3E%3C%2FmxCell%3E%3C%2Froot%3E%3C%2FmxGraphModel%3E&lt;/span&gt;" style="text;html=1;align=left;verticalAlign=middle;resizable=0;points=[];autosize=1;strokeColor=none;" parent="6YFj8Sn7V4J3rEWGGBN--21" vertex="1">
          <mxGeometry y="146" width="280" height="20" as="geometry" />
        </mxCell>
        <mxCell id="6YFj8Sn7V4J3rEWGGBN--29" value="" style="line;html=1;strokeWidth=1;align=left;verticalAlign=middle;spacingTop=-1;spacingLeft=3;spacingRight=3;rotatable=0;labelPosition=right;points=[];portConstraint=eastwest;" parent="6YFj8Sn7V4J3rEWGGBN--21" vertex="1">
          <mxGeometry y="166" width="280" height="8" as="geometry" />
        </mxCell>
        <mxCell id="6YFj8Sn7V4J3rEWGGBN--39" value="+IssueResponseDto(entity:Issues)" style="text;html=1;align=left;verticalAlign=middle;resizable=0;points=[];autosize=1;strokeColor=none;" parent="6YFj8Sn7V4J3rEWGGBN--21" vertex="1">
          <mxGeometry y="174" width="280" height="20" as="geometry" />
        </mxCell>
        <mxCell id="6YFj8Sn7V4J3rEWGGBN--32" value="" style="endArrow=open;endSize=12;dashed=1;html=1;rounded=0;" parent="WIyWlLk6GJQsqaUBKTNV-1" edge="1">
          <mxGeometry x="-1" y="-106" width="160" relative="1" as="geometry">
            <mxPoint x="-1010" y="324" as="sourcePoint" />
            <mxPoint x="-1010" y="444" as="targetPoint" />
            <Array as="points" />
            <mxPoint x="-10" y="-22" as="offset" />
          </mxGeometry>
        </mxCell>
        <mxCell id="6YFj8Sn7V4J3rEWGGBN--33" value="" style="endArrow=open;endSize=12;dashed=1;html=1;rounded=0;" parent="WIyWlLk6GJQsqaUBKTNV-1" edge="1">
          <mxGeometry x="-1" y="-106" width="160" relative="1" as="geometry">
            <mxPoint x="-594" y="304" as="sourcePoint" />
            <mxPoint x="-594" y="415" as="targetPoint" />
            <Array as="points" />
            <mxPoint x="-10" y="-22" as="offset" />
          </mxGeometry>
        </mxCell>
        <mxCell id="6YFj8Sn7V4J3rEWGGBN--34" value="" style="endArrow=classic;html=1;exitX=1;exitY=0.75;exitDx=0;exitDy=0;rounded=0;exitPerimeter=0;entryX=0;entryY=0.35;entryDx=0;entryDy=0;entryPerimeter=0;" parent="WIyWlLk6GJQsqaUBKTNV-1" source="6YFj8Sn7V4J3rEWGGBN--8" edge="1">
          <mxGeometry width="50" height="50" relative="1" as="geometry">
            <mxPoint x="-811" y="275" as="sourcePoint" />
            <mxPoint x="-706" y="286" as="targetPoint" />
            <Array as="points" />
          </mxGeometry>
        </mxCell>
        <mxCell id="6YFj8Sn7V4J3rEWGGBN--35" value="1" style="text;html=1;strokeColor=none;fillColor=none;align=center;verticalAlign=middle;whiteSpace=wrap;rounded=0;" parent="WIyWlLk6GJQsqaUBKTNV-1" vertex="1">
          <mxGeometry x="-1260" y="190" width="30" height="20" as="geometry" />
        </mxCell>
        <mxCell id="6YFj8Sn7V4J3rEWGGBN--36" value="1" style="text;html=1;strokeColor=none;fillColor=none;align=center;verticalAlign=middle;whiteSpace=wrap;rounded=0;" parent="WIyWlLk6GJQsqaUBKTNV-1" vertex="1">
          <mxGeometry x="-1210" y="264.5" width="30" height="20" as="geometry" />
        </mxCell>
        <mxCell id="6YFj8Sn7V4J3rEWGGBN--37" value="1" style="text;html=1;strokeColor=none;fillColor=none;align=center;verticalAlign=middle;whiteSpace=wrap;rounded=0;" parent="WIyWlLk6GJQsqaUBKTNV-1" vertex="1">
          <mxGeometry x="-851" y="264.5" width="30" height="20" as="geometry" />
        </mxCell>
        <mxCell id="6YFj8Sn7V4J3rEWGGBN--38" value="1" style="text;html=1;strokeColor=none;fillColor=none;align=center;verticalAlign=middle;whiteSpace=wrap;rounded=0;" parent="WIyWlLk6GJQsqaUBKTNV-1" vertex="1">
          <mxGeometry x="-740" y="264.5" width="30" height="20" as="geometry" />
        </mxCell>
        <mxCell id="GGblhygRaLxZIakyVE5r-1" value="ViewController" style="swimlane;fontStyle=2;align=center;verticalAlign=top;childLayout=stackLayout;horizontal=1;startSize=26;horizontalStack=0;resizeParent=1;resizeLast=0;collapsible=1;marginBottom=0;rounded=0;shadow=0;strokeWidth=1;" parent="WIyWlLk6GJQsqaUBKTNV-1" vertex="1">
          <mxGeometry x="-1620" y="76" width="184" height="114" as="geometry">
            <mxRectangle x="230" y="140" width="160" height="26" as="alternateBounds" />
          </mxGeometry>
        </mxCell>
        <mxCell id="GGblhygRaLxZIakyVE5r-2" value="- authentication" style="text;align=left;verticalAlign=top;spacingLeft=4;spacingRight=4;overflow=hidden;rotatable=0;points=[[0,0.5],[1,0.5]];portConstraint=eastwest;" parent="GGblhygRaLxZIakyVE5r-1" vertex="1">
          <mxGeometry y="26" width="184" height="26" as="geometry" />
        </mxCell>
        <mxCell id="GGblhygRaLxZIakyVE5r-3" value="" style="line;html=1;strokeWidth=1;align=left;verticalAlign=middle;spacingTop=-1;spacingLeft=3;spacingRight=3;rotatable=0;labelPosition=right;points=[];portConstraint=eastwest;" parent="GGblhygRaLxZIakyVE5r-1" vertex="1">
          <mxGeometry y="52" width="184" height="10" as="geometry" />
        </mxCell>
        <mxCell id="GGblhygRaLxZIakyVE5r-4" value="+ constructor(response)" style="text;align=left;verticalAlign=top;spacingLeft=4;spacingRight=4;overflow=hidden;rotatable=0;points=[[0,0.5],[1,0.5]];portConstraint=eastwest;" parent="GGblhygRaLxZIakyVE5r-1" vertex="1">
          <mxGeometry y="62" width="184" height="26" as="geometry" />
        </mxCell>
        <mxCell id="GGblhygRaLxZIakyVE5r-5" value="- render()" style="text;align=left;verticalAlign=top;spacingLeft=4;spacingRight=4;overflow=hidden;rotatable=0;points=[[0,0.5],[1,0.5]];portConstraint=eastwest;" parent="GGblhygRaLxZIakyVE5r-1" vertex="1">
          <mxGeometry y="88" width="184" height="26" as="geometry" />
        </mxCell>
        <mxCell id="GGblhygRaLxZIakyVE5r-6" value="IssueInfoPageView" style="swimlane;fontStyle=2;align=center;verticalAlign=top;childLayout=stackLayout;horizontal=1;startSize=26;horizontalStack=0;resizeParent=1;resizeLast=0;collapsible=1;marginBottom=0;rounded=0;shadow=0;strokeWidth=1;" parent="WIyWlLk6GJQsqaUBKTNV-1" vertex="1">
          <mxGeometry x="-1910" y="76" width="184" height="166" as="geometry">
            <mxRectangle x="230" y="140" width="160" height="26" as="alternateBounds" />
          </mxGeometry>
        </mxCell>
        <mxCell id="GGblhygRaLxZIakyVE5r-7" value="- issueBookList" style="text;align=left;verticalAlign=top;spacingLeft=4;spacingRight=4;overflow=hidden;rotatable=0;points=[[0,0.5],[1,0.5]];portConstraint=eastwest;" parent="GGblhygRaLxZIakyVE5r-6" vertex="1">
          <mxGeometry y="26" width="184" height="26" as="geometry" />
        </mxCell>
        <mxCell id="GGblhygRaLxZIakyVE5r-8" value="" style="line;html=1;strokeWidth=1;align=left;verticalAlign=middle;spacingTop=-1;spacingLeft=3;spacingRight=3;rotatable=0;labelPosition=right;points=[];portConstraint=eastwest;" parent="GGblhygRaLxZIakyVE5r-6" vertex="1">
          <mxGeometry y="52" width="184" height="10" as="geometry" />
        </mxCell>
        <mxCell id="GGblhygRaLxZIakyVE5r-9" value="+ constructor(issueBookList)" style="text;align=left;verticalAlign=top;spacingLeft=4;spacingRight=4;overflow=hidden;rotatable=0;points=[[0,0.5],[1,0.5]];portConstraint=eastwest;" parent="GGblhygRaLxZIakyVE5r-6" vertex="1">
          <mxGeometry y="62" width="184" height="26" as="geometry" />
        </mxCell>
        <mxCell id="GGblhygRaLxZIakyVE5r-10" value="- render()" style="text;align=left;verticalAlign=top;spacingLeft=4;spacingRight=4;overflow=hidden;rotatable=0;points=[[0,0.5],[1,0.5]];portConstraint=eastwest;" parent="GGblhygRaLxZIakyVE5r-6" vertex="1">
          <mxGeometry y="88" width="184" height="26" as="geometry" />
        </mxCell>
        <mxCell id="GGblhygRaLxZIakyVE5r-11" value="- setBookList(issueBookList)" style="text;align=left;verticalAlign=top;spacingLeft=4;spacingRight=4;overflow=hidden;rotatable=0;points=[[0,0.5],[1,0.5]];portConstraint=eastwest;" parent="GGblhygRaLxZIakyVE5r-6" vertex="1">
          <mxGeometry y="114" width="184" height="26" as="geometry" />
        </mxCell>
        <mxCell id="GGblhygRaLxZIakyVE5r-12" value="- get(issueBookList)" style="text;align=left;verticalAlign=top;spacingLeft=4;spacingRight=4;overflow=hidden;rotatable=0;points=[[0,0.5],[1,0.5]];portConstraint=eastwest;" parent="GGblhygRaLxZIakyVE5r-6" vertex="1">
          <mxGeometry y="140" width="184" height="26" as="geometry" />
        </mxCell>
        <mxCell id="GGblhygRaLxZIakyVE5r-19" style="edgeStyle=orthogonalEdgeStyle;rounded=0;orthogonalLoop=1;jettySize=auto;html=1;entryX=1;entryY=0.5;entryDx=0;entryDy=0;" parent="WIyWlLk6GJQsqaUBKTNV-1" source="GGblhygRaLxZIakyVE5r-4" target="GGblhygRaLxZIakyVE5r-9" edge="1">
          <mxGeometry relative="1" as="geometry" />
        </mxCell>
      </root>
    </mxGraphModel>
  </diagram>
</mxfile>
